HIERARCHY
ROOT pelvis
{
  OFFSET 0 100 0
  CHANNELS 6 Xposition Yposition Zposition Zrotation Xrotation Yrotation
  JOINT pelvis_right_femur
  {
    OFFSET -10.78128 -3.44521 -0.5502486
    CHANNELS 3 Zrotation Xrotation Yrotation
    JOINT right_femur_tibia
    {
      OFFSET -0.8047443 -44.0398 -0.1307829
      CHANNELS 3 Zrotation Xrotation Yrotation
      JOINT right_tibia_foot
      {
        OFFSET 3.006224 -47.83518 -5
        CHANNELS 3 Zrotation Xrotation Yrotation
        End Site
        {
          OFFSET 0 -5 15
        }
      }
    }
  }
  JOINT pelvis_left_femur
  {
    OFFSET 10.78128 -3.44521 -0.5502486
    CHANNELS 3 Zrotation Xrotation Yrotation
    JOINT left_femur_tibia
    {
      OFFSET 0.8047443 -44.0398 -0.1307829
      CHANNELS 3 Zrotation Xrotation Yrotation
      JOINT left_tibia_foot
      {
        OFFSET -4.370144 -48.10324 -4.275266
        CHANNELS 3 Zrotation Xrotation Yrotation
        End Site
        {
          OFFSET 0 -5 15
        }
      }
    }
  }
  JOINT pelvis_spine1
  {
    OFFSET 0 6.468898 -3.129235
    CHANNELS 3 Zrotation Xrotation Yrotation
    JOINT spine1
    {
      OFFSET 0 23.15396 4.99043
      CHANNELS 3 Zrotation Xrotation Yrotation
      JOINT spine2
      {
        OFFSET 0 20.79997 -5.064912
        CHANNELS 3 Zrotation Xrotation Yrotation
        JOINT neck
        {
          OFFSET 0 14.38658 9.616178
          CHANNELS 3 Zrotation Xrotation Yrotation
          End Site
          {
            OFFSET 0 20 0
          }
        }
      }
      JOINT right_manubrium
      {
        OFFSET -5.722621 16.35077 3.967754
        CHANNELS 3 Zrotation Xrotation Yrotation
        JOINT right_clavicle
        {
          OFFSET -13.16364 1.694482 -4.693211
          CHANNELS 3 Zrotation Xrotation Yrotation
          JOINT right_humerus
          {
            OFFSET -28.5034 -0.3100689 -2.792744
            CHANNELS 3 Zrotation Xrotation Yrotation
            JOINT right_radius
            {
              OFFSET -25.15693 0.02248979 -1.271978
              CHANNELS 3 Zrotation Xrotation Yrotation
              End Site
              {
                OFFSET -15 0 0
              }
            }
          }
        }
      }
      JOINT left_manubrium
      {
        OFFSET 5.722621 16.35077 3.967754
        CHANNELS 3 Zrotation Xrotation Yrotation
        JOINT left_clavicle
        {
          OFFSET 13.16364 1.694482 -4.693211
          CHANNELS 3 Zrotation Xrotation Yrotation
          JOINT left_humerus
          {
            OFFSET 29.39168 -1.063119 -2.237045
            CHANNELS 3 Zrotation Xrotation Yrotation
            JOINT left_radius
            {
              OFFSET 24.59957 -0.9528479 0.9047498
              CHANNELS 3 Zrotation Xrotation Yrotation
              End Site
              {
                OFFSET 15 -0 -0
              }
            }
          }
        }
      }
    }
  }
}
MOTION
Frames: 7
Frame Time: 0.0416666666667
0 103.5113 0 0.904351 -3.828043 0.02059058 2.10032 -12.36571 7.139069 -0 41.14563 -0 -7.041936 -15.23625 -3.507116 -6.010454 12.0256 -24.20967 -0 5.765279 -0 1.199688 -18.44664 23.84598 -1.400739 -1.194825 3.089662 2.043475 6.016652 -7.506117 1.175287 23.35186 7.314674 3.872839 -24.07949 8.372919 4.366728 -18.31627 10.54095 88.19232 34.76474 -22.2332 -0 0 14.65117 -7.595782 8.046699 3.842539 4.788017 -19.41401 -2.920545 -99.94498 41.55297 28.28888 0 0 -23.90335 -11.17105 17.81672 29.03334
0.1816544 103.4977 1.178618 0.05760426 -3.322505 -0.1013863 3.158274 -14.58596 8.458748 -0 42.99482 -0 -7.511711 -14.24627 -4.192756 -5.465055 11.59303 -24.25977 -0 6.014374 -0 -0.2881142 -19.54845 23.78617 -1.332185 -1.158788 3.135001 1.998637 6.063543 -7.492552 1.176782 23.32542 7.357825 3.894503 -24.04985 8.395142 4.299441 -18.35177 10.54848 88.3186 34.88856 -22.26612 -0 0 14.59177 -7.848105 8.305788 3.863328 4.792229 -19.49665 -2.924051 -99.8713 41.42342 28.29505 0 0 -23.99847 -11.14355 17.85134 29.04397
0.3680308 103.3337 2.655704 -0.2523197 -1.956707 -0.1266002 3.807891 -18.73569 8.15532 -0 39.07681 -0 -7.295262 -12.82809 -4.215124 -5.470339 11.4876 -22.92738 -0 5.615404 -0 0.311437 -20.63385 23.00214 -1.335091 -1.128074 2.820302 2.243886 6.494 -7.833315 1.131656 22.97591 7.506423 3.974018 -24.22678 8.47827 4.83108 -17.77879 10.67823 88.70589 34.86322 -23.17429 -0 0 13.67252 -7.874744 8.769849 4.131457 4.94765 -19.81936 -3.064287 -98.32672 40.55379 26.20986 0 0 -24.03081 -9.899372 17.18458 27.60166
0.5597276 102.9615 4.502138 -0.3303149 -0.7350841 -0.06306629 4.096004 -22.40536 7.411578 -0 34.33898 -0 -6.938003 -11.52603 -4.081671 -5.582775 11.65125 -21.54152 -0 5.29026 -0 1.019403 -21.5465 22.03401 -1.266981 -1.103479 2.607086 2.394422 6.779027 -8.079586 1.114115 22.70681 7.633975 4.036811 -24.35494 8.570865 5.10493 -17.42419 10.74108 89.14081 34.85196 -23.94064 -0 0 13.0156 -7.928939 9.215592 4.237615 5.089685 -20.12686 -3.163247 -97.33061 39.99075 24.86457 0 0 -24.3113 -9.15198 16.76588 26.78809
0.7527409 102.3787 6.777327 -0.3181899 0.5425493 0.08960337 4.297224 -26.03334 6.609701 -0 29.06248 -0 -6.44861 -10.30386 -3.925171 -5.747908 12.05332 -20.21348 -0 5.194045 -0 1.8412 -22.39169 21.04225 -1.272658 -1.083599 2.41848 2.557429 7.032503 -8.292605 1.082615 22.4433 7.739376 4.109011 -24.4492 8.606851 5.454446 -17.04625 10.81448 89.30706 34.88418 -24.46497 -0 0 12.43376 -8.004922 9.56439 4.458669 5.221432 -20.35177 -3.238752 -96.29757 39.31831 23.47129 0 0 -24.46097 -8.302687 16.26303 25.80185
0.9422073 101.6059 9.541375 -0.3026674 1.732113 0.3392411 4.480137 -29.40498 5.756449 -0 23.82849 -0 -6.018716 -8.888011 -3.68815 -5.890449 12.67365 -18.99197 -0 5.588397 -0 2.495932 -23.08528 19.99147 -1.284011 -1.05634 2.291235 2.680068 7.242506 -8.4502 1.050628 22.2149 7.832074 4.181244 -24.49535 8.615997 5.743979 -16.73719 10.87892 89.37824 34.97375 -24.80792 -0 0 11.96251 -8.183825 9.907938 4.705318 5.33184 -20.53828 -3.292026 -95.40244 38.65154 22.29999 0 0 -24.58862 -7.549032 15.80833 24.91754
1.123282 100.7063 12.84904 -0.3948467 2.790782 0.6986534 4.811455 -32.41955 5.021151 -0 19.20509 -0 -5.757833 -7.216771 -3.384207 -5.919958 13.47527 -17.96939 -0 6.703463 -0 2.688303 -23.54764 18.82502 -1.323733 -1.020384 2.222885 2.772031 7.422758 -8.552766 1.012788 22.02426 7.905492 4.251996 -24.49323 8.586263 6.009921 -16.47625 10.94646 89.30151 35.11731 -24.93003 -0 0 11.59272 -8.463453 10.21245 5.012915 5.409982 -20.66477 -3.324734 -94.60181 37.94655 21.29242 0 0 -24.60958 -6.827006 15.36743 24.0426
